<?xml version="1.0" encoding="UTF-8"?>
<svg width="42px" height="42px" viewBox="0 0 42 42" version="1.1" xmlns="http://www.w3.org/2000/svg" xmlns:xlink="http://www.w3.org/1999/xlink">
    <title>Download</title>
    <g id="Download" stroke="none" stroke-width="1" fill="none" fill-rule="evenodd">
        <path d="M21.23,0.51 C21.6856349,0.51 22.0981349,0.694682541 22.3967262,0.993273811 C22.6953175,1.29186508 22.88,1.70436508 22.8799916,2.16289536 L22.8799916,2.16289536 L22.8757382,2.89740411 C23.308839,3.60651804 24.7061179,4.31792586 26.9392216,5.12679664 C28.7901978,5.66679972 30.1730835,6.34794724 31.0992029,7.15167197 C32.1104254,8.02925276 32.6015625,9.05565496 32.6015625,10.21875 C32.6015625,12.6467835 31.5313436,14.6486914 29.3718935,16.2156567 L29.3718935,16.2156567 L27.8676575,14.8054355 C28.9588816,14.1455281 29.4921875,13.1751047 29.4921875,11.90625 C29.4921875,11.6395332 29.2868265,11.3959172 28.9789019,11.1396767 C28.5452598,10.7788197 27.8919897,10.4218418 27.0321831,10.0620375 L27.0321831,10.0620375 L26.5351929,9.86261275 C26.1923797,9.73052601 25.8221296,9.59834527 25.4291615,9.46754027 L25.4291615,9.46754027 L24.7713802,9.25582649 L24.2180025,9.00121031 C23.6278242,8.70072166 23.1964934,8.4650938 22.8749445,8.27256348 L22.8749445,8.27256348 L22.8740282,24.5 L31.0525589,24.5 L21.0932667,41.75 L11.1339746,24.5 L19.578003,24.5 L19.5781383,2.1526058 C19.5814499,1.69825101 19.7673498,1.28767722 20.0657744,0.990710018 C20.3644492,0.69349374 20.7758056,0.51 21.23,0.51 Z" id="Path" stroke="#E7ACBE" fill="#D73F73"></path>
    </g>
</svg>