<?xml version="1.0" encoding="UTF-8"?>
<svg width="42px" height="42px" viewBox="0 0 42 42" version="1.1" xmlns="http://www.w3.org/2000/svg" xmlns:xlink="http://www.w3.org/1999/xlink">
    <title>Download</title>
    <g id="Download" stroke="none" stroke-width="1" fill="none" fill-rule="evenodd">
        <polygon id="Star" fill="#020032" points="30.341234 25 11 25 20.670617 41.75"></polygon>
        <path d="M20.7380396,0 C21.3917291,0 21.9216491,0.529920011 21.9216491,1.18360947 C21.9216491,1.21473754 21.9204475,1.24558495 21.9180881,1.27610785 L21.916503,2.07228147 C22.3185442,2.89244565 23.8302194,3.77693642 26.4515284,4.72575379 C30.102063,5.78714272 31.9273304,7.37118529 31.9273304,9.47788149 C31.9273304,11.6810676 31.0026355,13.5143758 29.1532457,14.9778059 L29.0567558,14.9778059 L28.3813264,14.2541317 C29.2979805,13.4982941 29.7563075,12.4851501 29.7563075,11.2146997 C29.7563075,10.4272176 28.8046704,9.63530931 26.9013962,8.83897476 L26.3833027,8.63113491 C26.0235155,8.49250807 25.6349454,8.35374735 25.2175922,8.21485277 L24.5699753,8.00641048 L24.5699753,8.00641048 L24.0377799,7.76154055 C23.953655,7.72172953 23.8718172,7.68241883 23.7922667,7.64360845 L23.3424093,7.41674997 C22.6383904,7.04865886 22.1630883,6.73059955 21.916503,6.46257204 L21.916503,30.7297825 C21.916503,33.0455402 20.211848,34.5411337 16.8025381,35.216563 L15.5240469,35.216563 C11.841349,35.216563 10,33.9461126 10,31.4052118 C10,29.4110872 11.608165,28.2451675 14.8244951,27.9074529 L15.3551896,27.9074529 C16.8186198,27.9074529 18.2177234,28.3899024 19.5525004,29.3548014 L19.5525004,1.17974988 C19.5572573,0.527097539 20.0860933,0 20.7380396,0 Z" id="Path" fill="#020032" fill-rule="nonzero"></path>
        <path d="M21.9162761,25 L21.916503,30.7297825 C21.916503,33.0259834 20.2405184,34.5158143 16.8885494,35.1992753 L12.8845191,28.264966 C13.4484812,28.1032062 14.0951398,27.9840352 14.8244951,27.9074529 L15.3551896,27.9074529 C16.8186198,27.9074529 18.2177234,28.3899024 19.5525004,29.3548014 L19.5522761,25 L21.9162761,25 Z" id="Path" fill="#FFFFFF"></path>
    </g>
</svg>