<?xml version="1.0" encoding="UTF-8"?>
<svg width="42px" height="42px" viewBox="0 0 42 42" version="1.1" xmlns="http://www.w3.org/2000/svg" xmlns:xlink="http://www.w3.org/1999/xlink">
    <title>Download</title>
    <g id="Download" stroke="none" stroke-width="1" fill="none" fill-rule="evenodd">
        <polygon id="Star" stroke="#E7ACBE" fill="#D73F73" points="30.1865335 25 12 25 21.0932667 40.75"></polygon>
        <path d="M21.23,0.51 C21.6856349,0.51 22.0981349,0.694682541 22.3967262,0.993273811 C22.6953175,1.29186508 22.88,1.70436508 22.8799916,2.16289536 L22.8799916,2.16289536 L22.8757382,2.89740411 C23.308839,3.60651804 24.7061179,4.31792586 26.9392216,5.12679664 C28.7901978,5.66679972 30.1730835,6.34794724 31.0992029,7.15167197 C32.1104254,8.02925276 32.6015625,9.05565496 32.6015625,10.21875 C32.6015625,12.6467835 31.5313436,14.6486914 29.3718935,16.2156567 L29.3718935,16.2156567 L27.8676575,14.8054355 C28.9588816,14.1455281 29.4921875,13.1751047 29.4921875,11.90625 C29.4921875,11.6395332 29.2868265,11.3959172 28.9789019,11.1396767 C28.5452598,10.7788197 27.8919897,10.4218418 27.0321831,10.0620375 L27.0321831,10.0620375 L26.5351929,9.86261275 C26.1923797,9.73052601 25.8221296,9.59834527 25.4291615,9.46754027 L25.4291615,9.46754027 L24.7713802,9.25582649 L24.2180025,9.00121031 C23.6278582,8.70073896 23.1965431,8.46512093 22.875,8.27259673 L22.875,8.27259673 L22.875,30.8671875 C22.875,32.1450859 22.402759,33.1954942 21.4625666,34.02038 C20.5740587,34.7999199 19.2434702,35.3780268 17.4549035,35.7265625 L17.4549035,35.7265625 L16.1640625,35.7265625 C14.2426739,35.7265625 12.8123528,35.3730535 11.8547214,34.7123297 C10.827638,34.003687 10.296875,32.9472476 10.296875,31.5234375 C10.296875,30.3842144 10.7566777,29.4818746 11.6752662,28.8158979 C12.5148814,28.2071769 13.7709244,27.799291 15.4584117,27.625 L15.4584117,27.625 L16,27.625 C17.2358508,27.625 18.42923,27.9518373 19.5781254,28.6121609 L19.5781254,28.6121609 L19.5781383,2.1526058 C19.5814499,1.69825101 19.7673498,1.28767722 20.0657744,0.990710018 C20.3644492,0.69349374 20.7758056,0.51 21.23,0.51 Z" id="Path" stroke="#E7ACBE" fill="#D73F73" fill-rule="nonzero"></path>
    </g>
</svg>