<?xml version="1.0" encoding="UTF-8"?>
<svg width="42px" height="42px" viewBox="0 0 42 42" version="1.1" xmlns="http://www.w3.org/2000/svg" xmlns:xlink="http://www.w3.org/1999/xlink">
    <title>Facebook</title>
    <g id="Facebook" stroke="none" stroke-width="1" fill="none" fill-rule="evenodd">
        <circle id="Oval" fill="#E7ACBE" cx="21" cy="21" r="21"></circle>
        <path d="M17.6666667,41 C8.22222222,39.3240223 1,31.0558659 1,21.1117318 C1,10.0502793 10,1 21,1 C32,1 41,10.0502793 41,21.1117318 C41,31.0558659 33.7777778,39.3240223 24.3333333,41 L23.2222222,40.1061453 L18.7777778,40.1061453 L17.6666667,41 Z" id="Path" fill="#D73F73" fill-rule="nonzero"></path>
        <path d="M28.7777778,26.5555556 L29.6666667,21 L24.3333333,21 L24.3333333,17.1111111 C24.3333333,15.5555556 24.8888889,14.3333333 27.3333333,14.3333333 L29.8888889,14.3333333 L29.8888889,9.22222222 C28.4444444,9 26.8888889,8.77777778 25.4444444,8.77777778 C20.8888889,8.77777778 17.6666667,11.5555556 17.6666667,16.5555556 L17.6666667,21 L12.6666667,21 L12.6666667,26.5555556 L17.6666667,26.5555556 L17.6666667,41 L24.3333333,41 L24.3333333,26.5555556 L28.7777778,26.5555556 Z" id="Path" fill="#E7ACBE" fill-rule="nonzero"></path>
    </g>
</svg>