<?xml version="1.0" encoding="UTF-8"?>
<svg width="42px" height="42px" viewBox="0 0 42 42" version="1.1" xmlns="http://www.w3.org/2000/svg" xmlns:xlink="http://www.w3.org/1999/xlink">
    <title>Instagram</title>
    <g id="Instagram" stroke="none" stroke-width="1" fill="none" fill-rule="evenodd">
        <path d="M29.7678035,1.13272284 C31.9724193,1.23602114 33.4699156,1.58361468 34.7809314,2.09757329 C36.1840013,2.62582077 37.4548413,3.45376903 38.4979613,4.51683048 C39.5682912,5.56633775 40.3965976,6.83668272 40.9232836,8.23451127 C41.4311416,9.54234611 41.7787089,11.0474664 41.8820278,13.2420794 C41.9100731,13.8401298 41.931583,14.3247424 41.9480937,14.8328397 C41.9834938,16.0531621 41.9946685,17.2031246 41.9980215,19.418102 L41.9985108,19.7973208 L41.9985108,23.2201145 C41.9958351,25.6900749 41.9854468,26.9009131 41.9557344,27.936651 C41.9083989,29.2058781 41.89602,29.4750353 41.8821154,29.7702973 C41.7873995,31.9736749 41.4316116,33.4704929 40.9250776,34.7834572 C40.3965976,36.1859753 39.5682912,37.4563203 38.5047608,38.4990309 C37.4548413,39.568889 36.1840013,40.3968372 34.7845898,40.923691 C33.4679678,41.4311964 31.97121,41.7783602 29.7678951,41.8815976 C29.3709996,41.9002672 29.0239105,41.9160389 28.6853155,41.9294073 C27.3248837,41.9790395 26.195019,41.9936577 23.5816379,41.9975666 L23.2159114,41.9980355 L19.7939628,41.9980355 C17.1420752,41.9951653 15.9397852,41.9834481 14.8522846,41.9486455 L14.5435406,41.9380614 C14.1329718,41.923079 13.7206128,41.9045494 13.232668,41.8816856 C11.0364996,41.7869884 9.53016487,41.4311171 8.22601452,40.9250847 C6.82294459,40.3968372 5.55210458,39.568889 4.50898464,38.5058275 C3.43865476,37.4563203 2.61034834,36.1859753 2.08326392,34.7871175 C1.57553034,33.471001 1.21986763,31.9747696 1.11649734,29.7703814 C1.10153634,29.4237026 1.08834793,29.1150904 1.07662791,28.8145125 C1.01987879,27.0522531 1.00460857,25.8275918 1.00057364,23.3366161 L1,22.909419 L1,20.1169921 C1.00317938,17.1982189 1.01798901,15.9521533 1.05494955,14.8072109 L1.06510083,14.5097909 C1.07932428,14.1135337 1.09633829,13.7129773 1.11658558,13.2419877 C1.21995735,11.0462529 1.56796169,9.54038632 2.08186831,8.23920079 C2.61034834,6.83668272 3.43865476,5.56633775 4.50218515,4.52362714 C5.55210458,3.45376903 6.82294459,2.62582077 8.22132741,2.09936486 C9.52965775,1.59173771 11.0353998,1.235993 13.232752,1.13263544 C15.0637536,1.05399237 15.8304317,1.02417555 19.4249382,1.01720955 L19.7939591,1.01658815 L20.4318485,1.0159166 C24.2594494,0.974617322 27.0141541,1.01373531 29.7678035,1.13272284 Z M22.2380576,5.61568035 L20.4324259,5.61568035 L19.7895115,5.61663892 L19.4335446,5.61726689 C17.1218471,5.62195494 16.0161202,5.63692464 14.7762993,5.67720821 C14.3606383,5.69194308 13.9433468,5.70994087 13.4426533,5.73170108 C11.5743157,5.81949543 10.5583393,6.12775927 9.87883067,6.38346767 C9.08049015,6.68069614 8.36034844,7.15186012 7.75784881,7.77477807 C7.1455226,8.36744583 6.67411484,9.08996201 6.37840633,9.88903428 C6.11214425,10.5747525 5.80474985,11.5889458 5.71697402,13.4474228 C5.63216567,15.4049964 5.60471791,16.0893989 5.60121337,20.4343946 L5.60121337,20.4343946 L5.6008155,21.5073478 L5.58648027,23.1220617 C5.57989882,25.2740394 5.62344168,27.4222802 5.71705589,29.5687043 C5.80482817,31.4350203 6.11272264,32.4499705 6.36836768,33.1207591 C6.66577804,33.9243627 7.1371858,34.6468789 7.76090144,35.2509313 C8.35384208,35.863029 9.07669508,36.3342534 9.87613407,36.6298511 C10.55789,36.8863964 11.5731164,37.202777 13.4340375,37.2826116 L13.4340375,37.2826116 L13.7335972,37.2965968 C13.9854408,37.3081675 14.2566105,37.3200378 14.6506052,37.3360253 C15.8222448,37.3807143 16.9249547,37.3947343 19.783797,37.3979979 L19.783797,37.3979979 L23.2156952,37.3979979 L23.5863881,37.3974965 C25.510087,37.3944555 26.5961677,37.3852905 27.5966725,37.359027 L27.5966725,37.359027 L27.9486773,37.3489923 C28.1241281,37.3435995 28.2996794,37.3376299 28.4795074,37.3310225 C28.8146506,37.3176669 29.1619619,37.3016946 29.5623233,37.2827131 C31.4324888,37.2028193 32.4472415,36.8869507 33.1179461,36.6315506 C33.921914,36.3342534 34.644767,35.863029 35.2490971,35.2395466 C35.8614233,34.6468789 36.3328311,33.9243627 36.6285396,33.1252904 C36.8851736,32.4438668 37.2016728,31.4371236 37.2815347,29.5691337 C37.3670654,27.7664967 37.3913488,27.0457651 37.3965789,23.5307126 L37.3965789,23.5307126 L37.3975143,22.5881675 L37.3975143,20.1121294 L37.3965786,19.4970211 L37.3959679,19.1426976 C37.3896013,15.9259113 37.36412,15.1940876 37.2816403,13.4558661 C37.2016654,11.5853624 36.8851984,10.5705238 36.6295469,9.8917323 C36.3322063,9.09375613 35.8608588,8.37394975 35.2494869,7.78348825 C34.5946972,7.12136937 33.9787986,6.72147735 33.1167339,6.39064396 C32.4364631,6.12665262 31.4298097,5.81936289 29.5625337,5.73162153 C27.7122967,5.65121307 27.0017176,5.62238366 23.2229455,5.61663866 L23.2229455,5.61663866 L22.2380576,5.61568035 Z M21.5076414,10.7405022 C24.4819304,10.7405022 27.1746344,11.9455846 29.1237722,13.8939103 C31.0729855,15.8423114 32.2785811,18.5340074 32.2785811,21.5071624 C32.2785811,24.4803173 31.0729855,27.1720133 29.1237722,29.1204145 C27.1746344,31.0687402 24.4819304,32.2738225 21.5076414,32.2738225 C18.5333523,32.2738225 15.8406484,31.0687402 13.8915105,29.1204145 C11.9422972,27.1720133 10.7367016,24.4803173 10.7367016,21.5071624 C10.7367016,18.5340074 11.9422972,15.8423114 13.8915105,13.8939103 C15.8406484,11.9455846 18.5333523,10.7405022 21.5076414,10.7405022 Z M21.5076414,15.3488332 C19.8039733,15.3488332 18.261582,16.0390776 17.1451138,17.1550805 C16.0287211,18.2710081 15.3382,19.8126427 15.3382,21.5154957 C15.3382,23.2183487 16.0287211,24.7599833 17.1451138,25.8759109 C18.261582,26.9919138 19.8039733,27.6821581 21.5076414,27.6821581 C23.2113094,27.6821581 24.7537007,26.9919138 25.8701689,25.8759109 C26.9865616,24.7599833 27.6770828,23.2183487 27.6770828,21.5154957 C27.6770828,19.8126427 26.9865616,18.2710081 25.8701689,17.1550805 C24.7537007,16.0390776 23.2113094,15.3488332 21.5076414,15.3488332 Z M32.1787476,7.94883725 C32.9798125,7.94883725 33.7050312,8.27341352 34.2299899,8.79815347 C34.755024,9.32296883 35.0797465,10.0479994 35.0797465,10.8488358 C35.0797465,11.6496721 34.755024,12.3747027 34.2299899,12.899518 C33.7050312,13.424258 32.9798125,13.7488342 32.1787476,13.7488342 C31.3776827,13.7488342 30.652464,13.424258 30.1275053,12.899518 C29.6024712,12.3747027 29.2777487,11.6496721 29.2777487,10.8488358 C29.2777487,10.0479994 29.6024712,9.32296883 30.1275053,8.79815347 C30.652464,8.27341352 31.3776827,7.94883725 32.1787476,7.94883725 Z" id="Shape" stroke="#E7ACBE" fill="#D73F73" fill-rule="nonzero"></path>
    </g>
</svg>