<?xml version="1.0" encoding="UTF-8"?>
<svg width="42px" height="42px" viewBox="0 0 42 42" version="1.1" xmlns="http://www.w3.org/2000/svg" xmlns:xlink="http://www.w3.org/1999/xlink">
    <title>Instagram</title>
    <g id="Instagram" stroke="none" stroke-width="1" fill="none" fill-rule="evenodd">
        <path d="M29.4705277,0.135964919 C31.7289966,0.241786537 33.2630729,0.597870896 34.6061135,1.12438421 C36.0434568,1.66553543 37.3453402,2.51370835 38.413941,3.60273769 C39.5104163,4.67788175 40.3589561,5.97925801 40.8985077,7.41123195 C41.4187714,8.75101387 41.7748289,10.2929004 41.8806716,12.5411222 C41.909402,13.1537814 41.9314373,13.6502319 41.9483513,14.1707407 C41.9846162,15.4208725 41.9960638,16.5989256 41.9994987,18.8680093 L42,19.2564914 L42,22.7628953 C41.9972589,25.2931905 41.9866169,26.5336064 41.9561787,27.5946448 C41.9076869,28.8948758 41.8950056,29.1706079 41.8807614,29.4730824 C41.7837318,31.7302829 41.4192529,33.2636643 40.9003456,34.608701 C40.3589561,36.045479 39.5104163,37.3468553 38.4209066,38.4150367 C37.3453402,39.5110287 36.0434568,40.3592016 34.6098613,40.8989251 C33.2610776,41.4188275 31.7277578,41.7744717 29.4706215,41.8802309 C29.0640309,41.8993565 28.7084633,41.9155135 28.3615972,41.9292085 C26.9679336,41.9800531 25.8104691,41.9950283 23.1332498,41.9990327 L22.7585895,41.9995131 L19.2530514,41.9995131 C16.536385,41.9965728 15.3047261,41.9845693 14.1906606,41.9489166 L13.8743748,41.938074 C13.4537768,41.9227256 13.031345,41.9037434 12.5314809,41.880321 C10.2816657,41.7833106 8.73853507,41.4187463 7.40252765,40.9003528 C5.9651843,40.3592016 4.6633009,39.5110287 3.5947002,38.4219993 C2.49822488,37.3468553 1.64968505,36.045479 1.1097253,34.6124507 C0.589589077,33.2641848 0.225238434,31.7314043 0.119343079,29.4731685 C0.104016613,29.1180212 0.090506047,28.8018704 0.0784997388,28.4939502 C0.0203643823,26.6886433 0.00472114973,25.4340666 0.000587655638,22.8822427 L0,22.4446103 L0,19.5839715 C0.00325704518,16.5939001 0.0184284347,15.3173963 0.0562918296,14.1444859 L0.0666910755,13.8398007 C0.0812619712,13.4338639 0.0986915932,13.0235229 0.119433465,12.5410283 C0.225330345,10.2916572 0.581835544,8.74900621 1.10829559,7.41603603 C1.64968505,5.97925801 2.49822488,4.67788175 3.58773461,3.60970037 C4.6633009,2.51370835 5.9651843,1.66553543 7.39772605,1.12621954 C8.73801557,0.606192351 10.280539,0.241757705 12.531567,0.135875384 C14.4072953,0.0553112656 15.1927014,0.0247660997 18.8750125,0.0176299319 L19.2530476,0.0169933599 L19.9065191,0.0163054046 C23.8276185,-0.0260027127 26.6496136,0.0140708282 29.4705277,0.135964919 Z M21.7568492,4.72842966 L19.9071106,4.72842966 L19.2484914,4.72941165 L18.8838291,4.73005496 C16.5156627,4.73485753 15.3829258,4.7501929 14.1128192,4.79146049 C13.6870046,4.8065553 13.2595198,4.82499273 12.7465956,4.84728448 C10.8326193,4.93722343 9.79182517,5.25301737 9.09571789,5.51497207 C8.27787594,5.81946108 7.54014301,6.30213439 6.92292584,6.94026864 C6.29564206,7.54741377 5.81271901,8.28757918 5.5097871,9.10617075 C5.23702091,9.80863929 4.92211765,10.8476067 4.83219768,12.7514816 C4.74531768,14.7568737 4.71719944,15.4579945 4.71360929,19.9091273 L4.71360929,19.9091273 L4.7132017,21.0082901 L4.6985163,22.6624473 C4.69177408,24.8669923 4.73638058,27.0677092 4.83228155,29.266565 C4.92219788,31.1784703 5.23761343,32.2182132 5.49950323,32.9053874 C5.80417857,33.728621 6.28710162,34.4687864 6.92605304,35.0875943 C7.53347771,35.714644 8.27398817,36.1973792 9.09295542,36.5001976 C9.79136489,36.7630097 10.8313907,37.0871186 12.7377694,37.1689034 L12.7377694,37.1689034 L13.0446465,37.1832302 C13.302642,37.1950835 13.5804357,37.2072438 13.9840547,37.2236218 C15.1843145,37.2694025 16.3139608,37.283765 19.2426373,37.2871083 L19.2426373,37.2871083 L22.758368,37.2871083 L23.138116,37.2865946 C25.108806,37.2834793 26.2214169,37.2740905 27.2463615,37.2471854 L27.2463615,37.2471854 L27.6069648,37.2369056 C27.7867015,37.2313811 27.966541,37.2252656 28.1507618,37.2184968 C28.4940917,37.204815 28.8498869,37.1884525 29.2600281,37.1690074 C31.175877,37.087162 32.2154175,36.7635775 32.9025057,36.5019386 C33.7261125,36.1973792 34.466623,35.714644 35.0857153,35.0759315 C35.7129991,34.4687864 36.1959222,33.728621 36.4988541,32.9100294 C36.761757,32.2119604 37.0859875,31.180625 37.1678002,29.2670049 C37.2554202,27.420334 37.2802968,26.6819968 37.2856546,23.0810805 L37.2856546,23.0810805 L37.2866129,22.1155114 L37.2866129,19.57899 L37.2856543,18.9488562 L37.2850287,18.5858775 C37.2785066,15.2905133 37.2524028,14.540813 37.1679084,12.7601312 C37.0859799,10.8439358 36.7617824,9.80430729 36.499886,9.10893467 C36.1952821,8.29146598 35.7124208,7.55407656 35.0861146,6.94919159 C34.4153301,6.27089883 33.7843867,5.86123847 32.9012639,5.52232366 C32.2043758,5.25188368 31.1731324,4.93708765 29.2602436,4.84720299 C27.3648101,4.76483036 26.6368733,4.73529672 22.7657954,4.72941138 L22.7657954,4.72941138 L21.7568492,4.72842966 Z M21.0085908,9.97843783 C24.0555341,9.97843783 26.814014,11.2129573 28.8107643,13.2088757 C30.8075919,15.2048712 32.0426372,17.9623185 32.0426372,21.0081001 C32.0426372,24.0538816 30.8075919,26.8113289 28.8107643,28.8073246 C26.814014,30.8032429 24.0555341,32.0377623 21.0085908,32.0377623 C17.9616474,32.0377623 15.2031676,30.8032429 13.2064173,28.8073246 C11.2095896,26.8113289 9.9745444,24.0538816 9.9745444,21.0081001 C9.9745444,17.9623185 11.2095896,15.2048712 13.2064173,13.2088757 C15.2031676,11.2129573 17.9616474,9.97843783 21.0085908,9.97843783 Z M21.0085908,14.6993386 C19.2633065,14.6993386 17.6832385,15.4064439 16.5394978,16.5497079 C15.3958345,17.6928948 14.6884457,19.2721876 14.6884457,21.016637 C14.6884457,22.7610863 15.3958345,24.3403792 16.5394978,25.483566 C17.6832385,26.62683 19.2633065,27.3339352 21.0085908,27.3339352 C22.7538751,27.3339352 24.3339431,26.62683 25.4776838,25.483566 C26.6213471,24.3403792 27.328736,22.7610863 27.328736,21.016637 C27.328736,19.2721876 26.6213471,17.6928948 25.4776838,16.5497079 C24.3339431,15.4064439 22.7538751,14.6993386 21.0085908,14.6993386 Z M31.940365,7.11857965 C32.7609979,7.11857965 33.5039318,7.45108449 34.0417139,7.9886425 C34.5795733,8.52627776 34.9122279,9.26901902 34.9122279,10.0894177 C34.9122279,10.9098164 34.5795733,11.6525577 34.0417139,12.1901929 C33.5039318,12.727751 32.7609979,13.0602557 31.940365,13.0602557 C31.1197321,13.0602557 30.3767982,12.727751 29.8390161,12.1901929 C29.3011567,11.6525577 28.9685021,10.9098164 28.9685021,10.0894177 C28.9685021,9.26901902 29.3011567,8.52627776 29.8390161,7.9886425 C30.3767982,7.45108449 31.1197321,7.11857965 31.940365,7.11857965 Z" id="Shape" fill="#020032" fill-rule="nonzero"></path>
    </g>
</svg>