<?xml version="1.0" encoding="UTF-8"?>
<svg width="42px" height="42px" viewBox="0 0 42 42" version="1.1" xmlns="http://www.w3.org/2000/svg" xmlns:xlink="http://www.w3.org/1999/xlink">
    <title>TikTok</title>
    <g id="TikTok" stroke="none" stroke-width="1" fill="none" fill-rule="evenodd">
        <path d="M15.188988,21.773592 C12.121616,21.773592 9.626592,24.270772 9.626592,27.340692 C9.626592,29.479892 10.8428,31.341472 12.613464,32.272332 C11.951712,31.359392 11.558228,30.240652 11.558228,29.023352 C11.558228,25.953432 14.053252,23.456252 17.12068,23.456252 C17.693,23.456252 18.2474,23.554672 18.7661,23.715812 L18.7661,16.949472 C18.22948,16.877792 17.68404,16.832992 17.12068,16.832992 C17.02226,16.832992 16.932828,16.841952 16.83445,16.841952 L16.83445,22.033152 C16.306832,21.872012 15.761322,21.773592 15.188988,21.773592 Z" id="Shape" fill="#ACABBC" fill-rule="nonzero"></path>
        <path d="M36.58894,11.695552 L36.58894,16.841952 C33.15488,16.841952 29.97128,15.741132 27.37778,13.879412 L27.37778,27.349652 C27.37778,34.071332 21.91386,39.548972 15.188834,39.548972 C12.595432,39.548972 10.180894,38.725492 8.204542,37.338232 C10.431284,39.727892 13.605966,41.231632 17.12054,41.231632 C23.83648,41.231632 29.3095,35.762952 29.3095,29.032312 L29.3095,15.562072 C31.90286,17.423792 35.08646,18.524612 38.52052,18.524612 L38.52052,11.901492 C37.84978,11.901492 37.20592,11.829812 36.58894,11.695552 Z" id="Shape" fill="#ACABBC" fill-rule="nonzero"></path>
        <path d="M31.57232,8.724052 C30.1593,7.104098 29.30978,4.99182 29.30978,2.682646 L27.5392,2.682646 C27.99518,5.206636 29.49766,7.372632 31.57232,8.724052 Z" id="Shape" fill="#ACABBC" fill-rule="nonzero"></path>
        <path d="M27.37778,27.349652 L27.37778,13.879412 C29.97128,15.741132 33.15488,16.841952 36.58894,16.841952 L36.58894,11.695552 C34.6036,11.274992 32.85976,10.200912 31.57204,8.724052 C29.49724,7.372632 28.00386,5.206636 27.52982,2.682646 L22.68288,2.682646 L22.67392,29.238112 C22.56668,32.209612 20.11626,34.599412 17.12054,34.599412 C15.260388,34.599412 13.623858,33.677512 12.604392,32.281292 C10.833714,31.341472 9.617506,29.488852 9.617506,27.349652 C9.617506,24.279732 12.11253,21.782552 15.179902,21.782552 C15.752236,21.782552 16.306692,21.880972 16.825378,22.042112 L16.825378,16.850912 C10.243502,16.994132 4.931496,22.400092 4.931496,29.032312 C4.931496,32.236492 6.174542,35.154372 8.204542,37.338232 C10.180894,38.725492 12.595446,39.548972 15.188848,39.548972 C21.9049,39.548972 27.37778,34.071332 27.37778,27.349652 Z" id="Shape" fill="#020032" fill-rule="nonzero"></path>
        <path d="M16.825518,16.841952 L16.825518,15.275772 C16.288954,15.204092 15.743444,15.1592813 15.180042,15.1592813 C8.464032,15.150472 3,20.619012 3,27.349652 C3,31.475732 5.056838,35.127492 8.204696,37.338232 C6.174682,35.163332 4.931636,32.236492 4.931636,29.032312 C4.931636,22.400092 10.243642,16.994132 16.825518,16.841952 Z" id="Shape" fill="#ACABBC" fill-rule="nonzero"></path>
        <path d="M17.12068,34.599412 C20.11654,34.599412 22.56682,32.209752 22.6742,29.238252 L22.68316,2.68266 L27.5301,2.68266 C27.43168,2.136688 27.37806,1.572824 27.37806,1 L20.7604,1 L20.75144,27.555592 C20.6442,30.527092 18.19378,32.916752 15.198004,32.916752 C14.267956,32.916752 13.39157,32.684072 12.613548,32.272332 C13.615136,33.677512 15.260612,34.599412 17.12068,34.599412 Z" id="Shape" fill="#ACABBC" fill-rule="nonzero"></path>
        <path d="M36.58922,11.695552 L36.58922,10.218832 C34.73814,10.218832 33.02104,9.672832 31.57232,8.724052 C32.86004,10.200912 34.60388,11.274992 36.58922,11.695552 Z" id="Shape" fill="#ACABBC" fill-rule="nonzero"></path>
    </g>
</svg>