<?xml version="1.0" encoding="UTF-8"?>
<svg width="42px" height="42px" viewBox="0 0 42 42" version="1.1" xmlns="http://www.w3.org/2000/svg" xmlns:xlink="http://www.w3.org/1999/xlink">
    <title>Twitter</title>
    <g id="Twitter" stroke="none" stroke-width="1" fill="none" fill-rule="evenodd">
        <path d="M28.790188,4 C31.1928742,4 33.3719096,4.97373805 34.9479317,6.54480324 C36.6613978,6.17848326 38.2734496,5.53650603 39.7356148,4.66895462 C40.0866846,4.46065322 40.4304819,4.23853575 40.7660326,4.00310241 C40.6978525,4.42325067 40.598376,4.84049673 40.4669841,5.25128496 C40.0351439,6.6014062 39.2820613,7.80826532 38.2988857,8.78180746 C39.1958155,8.5585561 40.0622375,8.26008068 40.8927444,7.8920716 C41.4093302,7.66316533 41.9153216,7.40589375 42.4087471,7.12073808 C42.1357441,7.63714786 41.8362044,8.14002234 41.5111256,8.62686044 C40.4270442,10.2503807 39.0693864,11.679914 37.5096518,12.8457463 C37.5190571,13.1173501 37.524135,13.3899799 37.524135,13.6605743 C37.524135,19.6417501 35.0661334,26.1178181 30.375016,30.8085816 C26.379516,34.8037802 20.7670975,37.5094689 13.6734788,37.5094689 C8.94088106,37.5094689 4.53579517,36.1238578 0.825298215,33.7431655 L0.825298215,33.7431655 L-1,32.5720358 L1.15380513,32.8257717 C1.77760523,32.8992605 2.41166016,32.9368449 3.05425915,32.9368449 C6.3136174,32.9368449 9.34705596,31.9638668 11.8785567,30.2919056 C10.5211473,30.0532218 9.27193425,29.4997733 8.20895362,28.7098654 C6.76507233,27.6369076 5.66513563,26.1273777 5.10432637,24.3778041 C5.01553613,24.1008025 4.94123987,23.8208403 4.88136573,23.539031 C5.14439957,23.6187074 5.40881893,23.683588 5.67386077,23.7339832 C6.14392416,23.8233615 6.62888826,23.869638 7.12542977,23.869638 L7.10430557,23.869 L6.97233087,23.8050877 C5.98559218,23.3037653 5.10723063,22.6200067 4.38166422,21.7981658 L4.16862256,21.5475154 C2.94047697,20.046266 2.20369102,18.1275104 2.20369102,16.0370387 C2.20369102,15.7696053 2.21574926,15.5049822 2.23940819,15.2438247 C2.46251949,15.3664169 2.68756498,15.4792142 2.91271545,15.5828264 C3.4881117,15.8476186 4.10862524,16.0728693 4.76212851,16.2287666 C3.22131874,14.6570589 2.27063368,12.5010474 2.27063368,10.1267066 C2.27063368,8.5345602 2.70041368,7.03957784 3.44790249,5.75015965 C3.56871244,5.54176247 3.69830615,5.33789871 3.83667819,5.13942326 C3.97764649,5.3233739 4.12142467,5.50523504 4.26796525,5.68493538 C8.10330223,10.3881467 13.7692551,13.5356218 20.1846993,14.0363092 C20.1189294,13.6029154 20.0844274,13.1602083 20.0844274,12.7092839 C20.0844274,10.3041824 21.0589184,8.127059 22.6341805,6.5511206 C24.2097914,4.97483311 26.3864349,4 28.790188,4 L28.790188,4 Z" id="Path" stroke="#E7ACBE" fill="#D73F73" fill-rule="nonzero"></path>
    </g>
</svg>