<?xml version="1.0" encoding="UTF-8"?>
<svg width="42px" height="42px" viewBox="0 0 42 42" version="1.1" xmlns="http://www.w3.org/2000/svg" xmlns:xlink="http://www.w3.org/1999/xlink">
    <title>Twitter</title>
    <defs>
        <linearGradient x1="50%" y1="0%" x2="50%" y2="100%" id="linearGradient-1">
            <stop stop-color="#E7ACBE" offset="0%"></stop>
            <stop stop-color="#D73F73" offset="100%"></stop>
        </linearGradient>
    </defs>
    <g id="Twitter" stroke="none" stroke-width="1" fill="none" fill-rule="evenodd">
        <path d="M28.8234049,5 C31.1481166,5 33.2564356,5.94213726 34.781311,7.46221656 C36.4391698,7.10778479 37.9989056,6.48664169 39.413619,5.64724499 C39.7532956,5.44570361 40.0859356,5.23079453 40.4105966,5.00300173 C40.3446292,5.40951489 40.248381,5.81322003 40.1212532,6.21067692 C39.7034275,7.51698258 38.9747848,8.68467542 38.0235162,9.62662313 C38.8913379,9.41061696 39.7296418,9.12182799 40.5331962,8.76576193 C41.0330172,8.54428437 41.5225877,8.29536204 42,8.01946055 C41.7358568,8.51911125 41.4460381,9.00566591 41.1315091,9.47670462 C40.0826094,11.0475367 38.7690118,12.4306772 37.2598954,13.5586747 C37.2689954,13.8214641 37.2739086,14.0852462 37.2739086,14.347059 C37.2739086,20.1341273 34.8956767,26.400027 30.3568004,30.9385608 C26.4909666,34.804103 21.0606884,37.4219838 14.1972793,37.4219838 C9.61826896,37.4219838 5.35614163,36.08134 1.76606169,33.7779085 L1.76606169,33.7779085 L0,32.6447855 L2.08390754,32.8902869 C2.68746342,32.9613908 3.30094132,32.9977555 3.922686,32.9977555 C7.07626807,32.9977555 10.0112622,32.0563535 12.460608,30.4386526 C11.1472507,30.2077148 9.93857846,29.6722274 8.91009481,28.9079544 C7.5130719,27.8698174 6.44883152,26.4092764 5.90622224,24.7164818 C5.82031352,24.4484698 5.7484284,24.1775932 5.69049736,23.9049295 C5.94499495,23.9820201 6.20083309,24.0447952 6.4572735,24.0935549 C6.9120819,24.1800326 7.38130742,24.2248073 7.86173464,24.2248073 L7.84129598,24.22419 L7.71360427,24.1623518 C6.75888827,23.6772989 5.90903225,23.0157303 5.2070127,22.2205607 L5.00088489,21.9780447 C3.8125964,20.5255154 3.09972141,18.6690293 3.09972141,16.6463999 C3.09972141,16.3876455 3.11138833,16.1316102 3.13427945,15.8789281 C3.35015011,15.9975418 3.56789218,16.1066785 3.78573582,16.2069281 C4.3424587,16.463127 4.94283467,16.6810676 5.57512976,16.8319056 C4.08432399,15.3112046 3.16449158,13.2251623 3.16449158,10.9278762 C3.16449158,9.3873998 3.5803239,7.94093421 4.3035544,6.6933616 C4.4204437,6.49172755 4.5458317,6.29447979 4.67971314,6.10244548 C4.81610658,6.28042636 4.95521872,6.45638554 5.09700361,6.63025406 C8.80787213,11.1808317 14.2899474,14.2261616 20.4971908,14.7106002 C20.4335553,14.2912713 20.400173,13.8629314 20.400173,13.4266409 C20.400173,11.0995923 21.3430388,8.99312327 22.8671788,7.46832891 C24.3916563,5.94319678 26.497661,5 28.8234049,5 L28.8234049,5 Z" id="Path" fill="url(#linearGradient-1)" fill-rule="nonzero"></path>
    </g>
</svg>